<svg width="79" height="79" viewBox="0 0 79 79" fill="none" xmlns="http://www.w3.org/2000/svg">
<path d="M73.712 54.3325C73.5517 54.01 73.2312 53.6876 72.9108 53.5263C72.43 53.0427 71.9493 52.8814 71.9493 52.8814C71.9493 52.8814 71.4686 52.7202 70.8276 52.7202C70.5071 52.7202 70.1866 52.7202 69.7059 52.7202C69.3854 52.7202 68.9047 52.8815 68.5842 53.0427C68.2637 53.2039 67.9432 53.3651 67.783 53.5263C67.3022 53.8488 66.9818 54.1712 66.6613 54.4937C66.501 54.6549 66.501 54.8162 66.3408 54.8162C66.3408 54.9774 66.1805 54.9773 66.1805 54.9773C66.1805 54.9773 66.6613 55.1386 67.3022 55.2998C67.6227 55.2998 67.9432 55.461 68.4239 55.461C68.7444 55.461 69.2252 55.461 69.7059 55.2998C70.0264 55.1386 70.3469 54.9774 70.6674 54.8162C71.1481 54.4937 71.4686 54.01 71.7891 53.6876C72.1095 53.3651 72.1095 53.0427 72.1095 53.0427C72.1095 53.0427 71.9493 53.3651 71.9493 53.8488C71.7891 54.3325 71.7891 54.8161 71.7891 55.461C71.7891 55.7835 71.7891 56.1059 71.9493 56.5896C72.1096 57.0732 72.2698 57.3957 72.43 57.7182C72.5903 58.0406 72.9108 58.3631 73.071 58.6855C73.5517 59.1692 73.8722 59.4916 73.8722 59.4916C73.8722 59.4916 73.8722 59.4916 74.0325 59.3304C74.0325 59.1692 74.1927 59.008 74.353 58.8467C74.5132 58.3631 74.6734 57.7182 74.6734 57.0733C74.6734 56.7508 74.6734 56.2671 74.5132 55.9447C74.1927 54.9773 74.0325 54.6549 73.712 54.3325Z" fill="#F5EFDB"/>
<path d="M76.2757 49.9796C76.1155 49.4959 75.795 49.1734 75.4745 48.851C75.154 48.5286 74.8335 48.3673 74.6733 48.2061C74.0323 47.8837 73.7118 47.7224 73.7118 47.7224C73.7118 47.7224 73.2311 47.7224 72.5901 47.7224C72.2696 47.7224 71.9492 47.7224 71.4684 47.8836C71.1479 48.0449 70.6672 48.0449 70.3467 48.3673C70.0262 48.5286 69.7057 48.851 69.3852 49.0122C69.0648 49.3347 68.9045 49.4959 68.7443 49.8184C68.584 50.1408 68.4238 50.302 68.4238 50.4632C68.2635 50.6245 68.2635 50.7857 68.2635 50.7857C68.2635 50.7857 68.7443 50.9469 69.3852 50.9469C70.0262 50.9469 70.8274 50.9469 71.6286 50.6245C71.9491 50.4633 72.2696 50.1408 72.5901 49.8184C72.9106 49.4959 73.0708 49.1735 73.2311 49.0122C73.5516 48.5286 73.7118 48.0449 73.7118 47.8836C73.7118 47.8836 73.5516 48.3673 73.5516 49.0122C73.5516 49.3347 73.5516 49.6571 73.5516 50.1408C73.5516 50.4632 73.7118 50.9469 73.8721 51.2694C74.1926 52.0755 74.8335 52.7204 75.3143 53.2041C75.795 53.6877 76.2757 53.849 76.2757 53.849C76.2757 53.849 76.2757 53.6877 76.436 53.5265C76.436 53.3653 76.5962 53.0428 76.5962 52.7204C76.5962 52.3979 76.5962 51.9143 76.5962 51.4306C76.5962 50.9469 76.436 50.4633 76.2757 49.9796Z" fill="#F5EFDB"/>
<path d="M77.8785 45.6272C77.7183 45.1435 77.5581 44.8211 77.3978 44.3374C77.0773 44.015 76.9171 43.6925 76.5966 43.3701C76.2761 43.0476 75.9556 42.8864 75.6351 42.8864C74.9942 42.5639 74.5134 42.564 74.5134 42.564C74.5134 42.564 74.0327 42.564 73.3917 42.7252C73.0712 42.7252 72.7508 42.8864 72.27 43.0476C71.9495 43.2088 71.4688 43.3701 71.1483 43.6925C70.8278 44.0149 70.5074 44.1762 70.3471 44.4986C70.1869 44.8211 70.0266 45.1435 69.8664 45.3047C69.7061 45.7884 69.5459 46.2721 69.5459 46.2721C69.5459 46.2721 70.0266 46.2721 70.6676 46.2721C71.3086 46.2721 72.1098 46.1109 72.911 45.466C73.2315 45.1435 73.552 44.9823 73.7122 44.6599C73.8725 44.3374 74.0327 44.0149 74.1929 43.6925C74.3532 43.0476 74.5134 42.564 74.5134 42.564C74.5134 42.564 74.5134 43.0476 74.5134 43.6925C74.5134 44.0149 74.6737 44.3374 74.6737 44.8211C74.8339 45.1435 74.9942 45.6272 75.1544 45.9497C75.6351 46.7558 76.2761 47.2395 76.9171 47.5619C77.5581 47.8844 77.8785 48.0456 77.8785 48.0456C77.8785 48.0456 78.0388 47.5619 78.0388 46.7558C78.0388 46.4333 78.0388 46.1109 77.8785 45.6272Z" fill="#F5EFDB"/>
<path d="M78.8396 41.4349C78.8396 40.9512 78.6794 40.3063 78.3589 39.6614C78.1987 39.339 78.0384 39.0166 77.7179 38.6941C77.077 38.0492 76.2758 37.7268 75.6348 37.5655C74.9938 37.4043 74.5131 37.4043 74.5131 37.4043C74.5131 37.4043 74.0324 37.4043 73.3914 37.7268C72.7504 37.888 71.9492 38.3716 71.4685 39.0165C71.148 39.339 70.9877 39.5002 70.8275 39.8227C70.507 40.3063 70.3468 40.79 70.3468 41.2737C70.3468 41.4349 70.3468 41.5961 70.1865 41.7574C70.1865 41.9186 70.1865 41.9186 70.1865 41.9186C70.1865 41.9186 70.6672 41.9186 71.3082 41.7574C71.9492 41.5961 72.7504 41.2737 73.3914 40.6288C73.7119 40.3063 73.8721 40.1451 74.0323 39.8227C74.3528 39.339 74.3528 38.6941 74.5131 38.3717C74.5131 37.888 74.5131 37.5655 74.5131 37.5655C74.5131 37.5655 74.5131 37.888 74.6733 38.3717C74.8336 38.8553 74.8336 39.339 75.1541 39.9839C75.3143 40.3063 75.4745 40.6288 75.795 40.9512C76.436 41.5961 77.077 42.0798 77.7179 42.241C78.3589 42.5635 78.8396 42.5635 78.8396 42.5635V42.4023C78.8396 41.9186 78.8396 41.5961 78.8396 41.4349Z" fill="#F5EFDB"/>
<path d="M63.1359 65.6185C63.1359 65.6185 62.8154 65.2961 62.1744 64.9736C61.5334 64.6512 60.8925 64.3287 59.931 64.1675C59.6105 64.1675 59.29 64.1675 58.9695 64.1675C58.3286 64.3287 57.8478 64.4899 57.5273 64.6511C57.2069 64.8124 56.8864 64.9736 56.8864 64.9736C56.8864 64.9736 57.2068 65.2961 57.6876 65.7797C58.1683 66.2634 58.9695 66.5859 59.7707 66.7471C60.0912 66.7471 60.4117 66.7471 60.7322 66.7471C61.3732 66.5859 61.8539 66.4247 62.1744 66.1022C62.9756 65.941 63.1359 65.7797 63.1359 65.6185C63.1359 65.6185 62.8154 65.9409 62.6551 66.2634C62.3347 66.5858 62.0142 67.0695 61.8539 67.5532C61.6937 67.8757 61.5334 68.1981 61.5334 68.5206C61.3732 69.3267 61.5334 70.2941 61.6937 70.939C61.8539 71.5838 62.1744 72.0675 62.1744 72.0675C62.1744 72.0675 62.4949 71.9063 62.8154 71.5838C63.1359 71.2614 63.6166 70.7777 63.9371 70.1328C64.0973 69.8104 64.2576 69.4879 64.2576 69.0042C64.4178 68.0369 64.0973 67.2308 63.9371 66.5859C63.4564 66.1022 63.1359 65.6185 63.1359 65.6185Z" fill="#F5EFDB"/>
<path d="M66.8214 61.9102C66.8214 61.9102 66.3406 61.5878 65.8599 61.4265C65.2189 61.1041 64.4177 60.9429 63.6165 60.9429C63.4562 60.9429 63.1358 60.9429 62.9755 61.1041C62.8153 61.1041 62.655 61.2653 62.4948 61.2653C62.1743 61.4266 61.8538 61.5878 61.6936 61.749C61.3731 61.9102 61.2128 62.0715 61.0526 62.0715C60.8923 62.2327 60.8923 62.2327 60.8923 62.2327C60.8923 62.2327 61.2128 62.5551 61.8538 62.8776C62.1743 63.0388 62.4948 63.2 62.8153 63.3612C62.9755 63.3612 63.1358 63.5225 63.4562 63.5225C63.6165 63.5225 63.937 63.5225 64.0972 63.5225C64.5779 63.5225 64.8984 63.3612 65.2189 63.2C65.5394 63.0388 65.8599 62.8776 66.1804 62.7164C66.3406 62.2327 66.6611 61.9102 66.8214 61.9102C66.8214 61.9102 66.5009 62.3939 66.1804 62.8776C66.0201 63.2 65.8599 63.5225 65.6997 63.8449C65.5394 64.1674 65.5394 64.651 65.5394 64.9735C65.5394 65.1347 65.5394 65.4572 65.5394 65.6184C65.5394 65.7796 65.5394 66.1021 65.6997 66.2633C65.8599 66.5857 65.8599 67.0694 66.0201 67.3919C66.3406 68.0368 66.6611 68.3592 66.6611 68.3592C66.6611 68.3592 66.8214 68.198 66.9816 68.0368C67.1419 67.8755 67.3021 67.5531 67.4623 67.3919C67.6226 67.0694 67.7828 66.747 67.9431 66.2633C67.9431 66.1021 68.1033 65.7796 68.1033 65.6184C68.1033 65.4572 68.1033 65.1347 68.1033 64.9735C68.1033 64.0061 67.7828 63.2 67.4623 62.7164C67.1419 62.2327 66.8214 61.9102 66.8214 61.9102Z" fill="#F5EFDB"/>
<path d="M70.6672 58.3627C70.1865 57.879 69.866 57.5565 69.866 57.5565C69.866 57.5565 69.3853 57.3953 68.7443 57.2341C68.1033 57.0729 67.3021 56.9117 66.5009 57.0729C65.6997 57.2341 65.0587 57.7178 64.578 58.0402C64.4177 58.2015 64.0972 58.3627 64.0972 58.5239C63.937 58.6851 63.937 58.6851 63.937 58.6851C63.937 58.6851 64.4177 59.0076 64.8985 59.1688C65.5394 59.4912 66.3407 59.6525 67.1419 59.4912C67.6226 59.4912 67.9431 59.33 68.2636 59.0075C68.5841 58.8463 68.9046 58.5239 69.0648 58.3627C69.225 58.2014 69.5455 57.879 69.5455 57.7178C69.7058 57.5565 69.7058 57.3953 69.7058 57.3953C69.7058 57.3953 69.5455 57.5565 69.5455 57.7178C69.3853 57.879 69.3853 58.2014 69.225 58.5239C69.0648 58.8463 69.0648 59.1688 68.9046 59.6525C68.9046 59.9749 68.7443 60.4586 68.9046 60.9423C69.0648 61.9096 69.3853 62.5545 69.7058 63.1994C70.0263 63.8443 70.3468 64.1667 70.3468 64.1667C70.3468 64.1667 70.507 64.0055 70.507 63.8443C70.6672 63.683 70.8275 63.3606 70.9877 63.0381C71.3082 62.3932 71.6287 61.4259 71.4685 60.6198C71.4685 59.4912 70.9877 58.8463 70.6672 58.3627Z" fill="#F5EFDB"/>
<path d="M49.0344 72.3899C48.7139 71.9063 48.073 71.1001 47.432 70.7777C47.1115 70.6165 46.791 70.4552 46.4705 70.294C46.15 70.1328 45.9898 70.1328 45.6693 70.1328C45.3488 70.1328 45.1886 70.1328 45.0283 70.1328C44.7078 70.1328 44.3873 70.1328 44.3873 70.1328C44.3873 70.1328 44.5476 70.6165 44.7078 71.2614C45.0283 71.9063 45.509 72.5512 46.15 73.0348C46.4705 73.1961 46.791 73.3573 47.1115 73.3573C48.2332 73.6797 49.3549 73.3573 49.5152 73.3573C49.3549 73.3573 48.3934 73.6797 47.432 74.4858C47.1115 74.6471 46.9512 74.9695 46.6308 75.292C46.15 75.9369 45.8295 76.9042 45.6693 77.5491C45.509 78.194 45.5091 78.6777 45.5091 78.6777C45.5091 78.6777 45.8295 78.6777 46.3103 78.5165C46.4705 78.5165 46.791 78.3553 47.1115 78.194C47.432 78.0328 47.7525 77.8716 47.9127 77.7103C48.2332 77.5491 48.5537 77.2267 48.7139 76.9042C49.1947 76.0981 49.3549 75.292 49.3549 74.6471C49.3549 74.0022 49.3549 73.5185 49.3549 73.5185C49.3549 73.5185 49.3549 72.8736 49.0344 72.3899Z" fill="#F5EFDB"/>
<path d="M54.4827 71.5841C54.4827 71.5841 54.1622 71.1004 53.8417 70.6167C53.361 70.1331 52.72 69.4882 52.079 69.1657C51.7585 69.0045 51.2778 68.8433 50.9573 68.8433C50.6368 68.8433 50.3164 68.8433 49.9959 68.8433C49.3549 68.8433 49.0344 69.0045 49.0344 69.0045C49.0344 69.0045 49.1947 69.4882 49.5152 69.9719C49.8356 70.4555 50.4766 71.1004 51.2778 71.5841C52.079 71.9065 52.8803 71.9066 53.5212 71.7453C54.002 71.7453 54.4827 71.5841 54.4827 71.5841C54.4827 71.5841 54.002 71.7453 53.5212 72.229C53.0405 72.5514 52.3995 73.1963 52.079 74.0025C51.5983 74.8086 51.5983 75.6147 51.4381 76.2596C51.4381 76.9045 51.5983 77.3882 51.5983 77.3882C51.5983 77.3882 52.079 77.2269 52.72 76.9045C53.0405 76.7433 53.361 76.4208 53.6815 76.0984C54.0019 75.7759 54.3224 75.4535 54.4827 74.9698C54.9634 74.1637 54.9634 73.1963 54.8032 72.5515C54.6429 71.9066 54.4827 71.5841 54.4827 71.5841Z" fill="#F5EFDB"/>
<path d="M59.13 68.8425C59.13 68.8425 58.8095 68.52 58.3288 68.0364C57.848 67.5527 57.0468 67.069 56.2456 66.9078C55.7648 66.7466 55.4444 66.7466 55.1239 66.7466C54.8034 66.7466 54.4829 66.9078 54.1624 66.9078C53.5214 67.069 53.2009 67.2302 53.2009 67.2302C53.2009 67.2302 53.5214 67.7139 53.8419 68.1976C54.3227 68.6813 54.9636 69.1649 55.7648 69.4874C56.0853 69.6486 56.5661 69.6486 56.8865 69.6486C57.207 69.6486 57.6878 69.4874 57.848 69.4874C58.6492 69.1649 58.9697 69.0037 59.13 68.8425C59.13 68.8425 58.6492 69.1649 58.1685 69.6486C58.0083 69.8098 57.6878 70.1323 57.5275 70.4547C57.3673 70.7772 57.0468 71.0996 56.8865 71.5833C56.5661 72.3894 56.5661 73.3568 56.7263 74.0017C56.8866 74.6466 57.0468 75.1302 57.0468 75.1302C57.0468 75.1302 57.5275 74.969 58.1685 74.4853C58.489 74.3241 58.8095 74.0016 58.9697 73.6792C59.2902 73.3568 59.4504 72.8731 59.6107 72.5507C59.9312 71.7445 59.7709 70.7772 59.6107 70.1323C59.2902 69.3262 59.13 68.8425 59.13 68.8425Z" fill="#F5EFDB"/>
<path d="M33.9718 73.3583C33.8116 72.7134 33.6514 71.9073 33.1706 71.1012C33.0104 70.7787 32.6899 70.6175 32.5297 70.295C32.3694 70.1338 32.0489 69.9726 31.8887 69.8114C31.7285 69.6502 31.408 69.4889 31.2477 69.4889C30.9272 69.3277 30.6068 69.1665 30.6068 69.1665C30.6068 69.1665 30.4465 69.6501 30.4465 70.295C30.4465 70.9399 30.6068 71.7461 31.0875 72.5522C31.2477 72.8747 31.5682 73.0359 31.7284 73.3583C31.8887 73.5196 32.2092 73.6808 32.3694 73.842C32.5297 74.0032 32.8502 74.0032 33.0104 74.1645C33.4911 74.3257 33.6514 74.3256 33.8116 74.3256C33.8116 74.3256 33.4911 74.3256 33.0104 74.3256C32.8502 74.3256 32.5297 74.3256 32.2092 74.3256C31.8887 74.3256 31.5682 74.3257 31.408 74.4869C31.0875 74.4869 30.767 74.6481 30.4465 74.8093C29.6453 75.293 29.0043 75.7767 28.6838 76.4216C28.3633 76.9053 28.0428 77.3889 28.0428 77.3889C28.0428 77.3889 28.3633 77.5501 28.8441 77.5501C29.1646 77.5501 29.3248 77.5501 29.6453 77.5501C29.9658 77.5501 30.2863 77.5502 30.6068 77.3889C30.9272 77.3889 31.2477 77.2277 31.7284 77.0665C32.5297 76.5828 33.0104 75.9379 33.3309 75.293C33.6514 74.6481 33.8116 74.1645 33.8116 74.1645C33.8116 74.1645 34.1321 74.0032 33.9718 73.3583Z" fill="#F5EFDB"/>
<path d="M37.9777 71.7451C37.6572 71.4226 37.3367 71.2614 37.0162 70.9389C36.6957 70.7777 36.3752 70.6165 36.215 70.4552C35.7343 70.294 35.2535 70.1328 35.2535 70.1328C35.2535 70.1328 35.2535 70.6165 35.2535 71.2613C35.4138 71.9062 35.574 72.7124 36.215 73.3573C36.5355 73.6797 36.856 73.841 37.1764 74.1634C37.4969 74.3246 37.8174 74.4858 38.1379 74.6471C38.7789 74.8083 39.2596 74.8083 39.2596 74.8083C39.2596 74.8083 38.7789 74.8083 38.1379 74.9695C37.8174 74.9695 37.4969 75.1307 37.1764 75.2919C36.856 75.4532 36.3752 75.6144 36.0547 75.9368C35.4138 76.4205 34.9331 77.2266 34.6126 77.7103C34.2921 78.3552 34.1318 78.8389 34.1318 78.8389C34.1318 78.8389 34.6126 78.8389 35.4138 78.8389C36.215 78.8389 37.0162 78.5164 37.8174 78.0328C38.6186 77.3879 38.9391 76.743 39.0994 76.0981C39.2596 75.4532 39.4199 74.9695 39.4199 74.9695C39.4199 74.9695 39.4198 74.4858 39.2596 73.8409C38.7789 73.0348 38.4584 72.3899 37.9777 71.7451Z" fill="#F5EFDB"/>
<path d="M44.0673 73.5183C43.7468 72.8734 43.4263 72.2286 42.7854 71.5837C42.4649 71.2612 42.1444 71.1 41.8239 70.9388C41.5034 70.7776 41.1829 70.7775 40.8624 70.6163C40.2215 70.4551 39.901 70.4551 39.901 70.4551C39.901 70.4551 39.901 70.9388 40.0612 71.5837C40.2215 72.2286 40.5419 73.0347 41.1829 73.5183C41.8239 74.002 42.6251 74.3245 43.2661 74.3245C43.9071 74.3245 44.3878 74.3245 44.3878 74.3245C44.3878 74.3245 43.9071 74.3245 43.2661 74.6469C42.6251 74.8082 41.9841 75.1306 41.3432 75.7755C40.7022 76.4204 40.3817 77.2265 40.0612 77.8714C39.901 78.5163 39.7407 79 39.7407 79C39.7407 79 40.2215 79 41.0227 78.8388C41.3432 78.8388 41.8239 78.6776 42.1444 78.3551C42.4649 78.1939 42.9456 77.8714 43.2661 77.549C43.9071 76.9041 44.2276 76.098 44.2276 75.4531C44.3878 74.8082 44.3878 74.3245 44.3878 74.3245C44.3878 74.3245 44.3878 74.002 44.0673 73.5183Z" fill="#F5EFDB"/>
<path d="M19.5496 68.5206C19.5496 68.5206 19.7098 68.0369 20.0303 67.392C20.1906 66.7471 20.3508 65.941 20.3508 65.1349C20.3508 64.8124 20.1906 64.49 20.0303 64.1675C19.8701 63.6838 19.5496 63.2002 19.2291 62.8777C19.0689 62.7165 19.0689 62.5553 18.9086 62.5553C18.7484 62.5553 18.7484 62.394 18.7484 62.394C18.7484 62.394 18.4279 62.7165 18.1074 63.3614C17.7869 64.0063 17.6267 64.8124 17.6267 65.6185C17.6267 65.941 17.7869 66.2634 17.9471 66.5859C18.5881 67.8757 19.5496 68.5206 19.5496 68.5206C19.3893 68.5206 18.5881 67.8757 17.3062 67.5533C16.9857 67.5533 16.6652 67.392 16.1845 67.392C15.3833 67.392 14.4218 67.7145 13.9411 68.0369C13.3001 68.3594 12.9796 68.6818 12.9796 68.6818C12.9796 68.6818 12.9796 68.6818 13.1398 68.843C13.3001 69.0043 13.4603 69.0043 13.6206 69.1655C14.1013 69.4879 14.582 69.8104 15.223 69.9716C15.5435 70.1328 16.0242 70.1329 16.3447 70.1329C17.3062 70.1329 18.1074 69.6492 18.5881 69.3267C19.2291 69.0043 19.5496 68.5206 19.5496 68.5206Z" fill="#F5EFDB"/>
<path d="M24.0366 71.2616C24.0366 71.2616 24.1968 70.778 24.3571 70.1331C24.5173 69.4882 24.5173 68.6821 24.3571 67.8759C24.1968 67.3923 24.0366 67.0698 23.8764 66.7474C23.7161 66.5862 23.7161 66.4249 23.5559 66.2637C23.3956 66.1025 23.3956 65.9413 23.2354 65.9413C22.9149 65.4576 22.4341 65.2964 22.4341 65.2964C22.4341 65.2964 22.2739 65.78 21.9534 66.4249C21.7932 67.0698 21.6329 67.8759 21.7932 68.6821C21.9534 69.1657 22.1137 69.4882 22.2739 69.8106C22.4342 70.1331 22.7546 70.4555 22.9149 70.6168C23.5559 70.9392 24.0366 71.2616 24.0366 71.2616C24.0366 71.2616 23.5559 70.9392 22.9149 70.778C22.5944 70.778 22.2739 70.6168 21.7932 70.6168C21.4727 70.6168 20.992 70.6168 20.5112 70.6168C19.71 70.778 18.9088 71.2617 18.4281 71.5841C17.9473 72.0678 17.6268 72.3902 17.6268 72.3902C17.6268 72.3902 18.1076 72.7127 18.7485 72.8739C18.9088 72.8739 19.069 73.0351 19.2293 73.0351C19.3895 73.0351 19.71 73.1964 19.8703 73.1964C20.351 73.1964 20.6715 73.1964 21.1522 73.1964C22.1137 73.0351 22.7546 72.5514 23.2354 72.0678C23.8763 71.7453 24.0366 71.2616 24.0366 71.2616Z" fill="#F5EFDB"/>
<path d="M29.004 73.1958C29.004 73.1958 29.1643 72.7121 29.1643 72.0672C29.1643 71.4223 29.1643 70.6162 28.6836 69.81C28.5233 69.4876 28.3631 69.1651 28.0426 68.8427C27.8823 68.5202 27.5619 68.359 27.4016 68.1978C26.9209 67.8753 26.6004 67.7141 26.6004 67.7141C26.6004 67.7141 26.4402 68.1978 26.2799 68.8427C26.1197 69.4876 26.1197 70.2937 26.4401 71.0998C26.6004 71.4223 26.7606 71.7447 27.0811 72.0672C27.4016 72.3896 27.5619 72.5508 27.8823 72.7121C28.3631 73.0345 28.8438 73.1958 29.004 73.1958C29.004 73.1958 28.5233 73.0345 27.8823 73.0345C27.5619 73.0345 27.2414 73.0345 26.7606 73.0345C26.4401 73.0345 25.9594 73.1958 25.6389 73.1958C24.8377 73.5182 24.1968 74.0019 23.716 74.4856C23.2353 74.9692 23.0751 75.4529 23.0751 75.4529C23.0751 75.4529 23.5558 75.6142 24.1968 75.7754C24.5172 75.9366 24.998 75.9366 25.3185 75.9366C25.7992 75.9366 26.1197 75.9366 26.6004 75.7754C27.4016 75.4529 28.0426 74.808 28.5233 74.3243C28.6835 73.6794 29.004 73.1958 29.004 73.1958Z" fill="#F5EFDB"/>
<path d="M8.01219 57.2352C8.65316 57.074 9.13389 56.9127 9.13389 56.9127C9.13389 56.9127 9.45438 56.5903 9.93511 56.1066C10.0953 55.9454 10.4159 55.6229 10.5761 55.3005C10.7363 54.978 11.0568 54.6556 11.0568 54.1719C11.2171 53.8494 11.2171 53.527 11.2171 53.2046C11.2171 52.5597 11.2171 52.076 11.0568 51.7535C11.0568 51.5923 10.8966 51.4311 10.8966 51.2699C10.8966 51.1087 10.8966 51.1086 10.8966 51.1086C10.8966 51.1086 10.4158 51.2699 9.93511 51.7535C9.61462 51.9148 9.45438 52.2372 9.13389 52.5597C8.8134 52.8821 8.65317 53.2046 8.49292 53.6882C8.33268 54.0107 8.33267 54.3331 8.33267 54.6556C8.33267 55.3005 8.49293 55.7842 8.65318 56.2678C8.81342 56.7515 8.97366 56.9127 8.97366 57.074C8.97366 57.074 8.81341 56.7515 8.49292 56.4291C8.17244 56.1066 7.85195 55.6229 7.37122 55.3005C7.05074 55.1393 6.73024 54.8168 6.40975 54.8168C5.92902 54.6556 5.60853 54.4944 5.1278 54.4944C4.64707 54.4944 4.32659 54.4944 4.0061 54.4944C3.36513 54.4944 2.8844 54.6556 2.8844 54.6556C2.8844 54.6556 2.88441 54.6556 3.04465 54.8168C3.04465 54.9781 3.20489 55.1393 3.36513 55.3005C3.68562 55.7842 4.0061 56.2678 4.48683 56.7515C4.80732 56.9127 5.12782 57.2352 5.44831 57.3964C5.92904 57.5576 6.2495 57.7188 6.73023 57.7188C7.21097 57.3964 7.6917 57.3964 8.01219 57.2352Z" fill="#F5EFDB"/>
<path d="M10.8964 61.9111C11.5374 61.7499 11.8579 61.4274 11.8579 61.4274C11.8579 61.4274 12.1784 61.105 12.6591 60.6213C12.9796 60.1376 13.4603 59.3315 13.6206 58.5254C13.6206 58.0417 13.6206 57.7193 13.6206 57.3968C13.6206 57.0744 13.4603 56.752 13.4603 56.4295C13.3001 55.9458 13.1398 55.4622 13.1398 55.4622C13.1398 55.4622 12.8193 55.7846 12.3386 56.2683C11.8579 56.752 11.3772 57.3968 11.2169 58.3642C11.0567 59.1703 11.2169 59.9764 11.5374 60.6213C11.6976 60.9438 11.8579 61.105 11.8579 61.2663C12.0182 61.4275 12.0181 61.5887 12.0181 61.5887C11.8579 61.4275 10.8964 60.1377 9.13375 59.654C8.33253 59.4928 7.37107 59.4928 6.7301 59.654C6.08912 59.8152 5.6084 59.9764 5.6084 59.9764C5.6084 59.9764 5.92889 60.4601 6.40962 60.9438C6.7301 61.2662 6.89036 61.4275 7.37109 61.7499C7.69157 61.9111 8.17231 62.2336 8.65304 62.2336C9.45426 62.2336 10.2555 62.0724 10.8964 61.9111Z" fill="#F5EFDB"/>
<path d="M14.582 65.9409C15.2229 65.6184 15.5434 65.296 15.5434 65.296C15.5434 65.296 15.8639 64.9735 16.1844 64.3286C16.3447 64.0062 16.5049 63.6837 16.6651 63.3613C16.6651 63.2001 16.8254 63.0388 16.8254 62.7164C16.8254 62.5552 16.8254 62.2327 16.8254 62.0715C16.8254 61.5878 16.8254 61.2654 16.6651 60.9429C16.5049 60.6205 16.5049 60.298 16.3446 59.9756C16.1844 59.6531 16.0242 59.4919 16.0242 59.3307C15.8639 59.1694 15.8639 59.1694 15.8639 59.1694C15.8639 59.1694 15.5434 59.4919 15.0627 59.9756C14.7422 60.4592 14.2615 61.2654 14.2615 62.0715C14.2615 62.2327 14.2615 62.5552 14.2615 62.7164C14.2615 62.8776 14.4217 63.0388 14.4217 63.2001C14.582 63.5225 14.7422 63.845 14.9025 64.1674C15.2229 64.6511 15.5434 64.9735 15.7037 65.1348C15.7037 65.1348 15.2229 64.8123 14.7422 64.4899C14.4217 64.3287 14.1012 64.1674 13.7808 64.0062C13.6205 64.0062 13.4603 63.8449 13.1398 63.8449C12.9795 63.8449 12.8193 63.6838 12.4988 63.6838C11.6976 63.5225 10.7361 63.8449 10.0951 64.0062C9.45416 64.1674 9.13367 64.4899 9.13367 64.4899C9.13367 64.4899 9.29392 64.6511 9.29392 64.8123C9.45416 64.9735 9.6144 65.1347 9.93489 65.4572C10.2554 65.6184 10.5759 65.9409 10.8964 66.1021C11.2168 66.2633 11.6976 66.4245 12.1783 66.4245C12.3386 66.4245 12.659 66.4245 12.8193 66.4245C12.9795 66.4245 13.3 66.4245 13.4603 66.2633C13.941 66.2633 14.2615 66.1021 14.582 65.9409Z" fill="#F5EFDB"/>
<path d="M1.44179 40.6284C2.08277 41.2733 2.88397 41.5958 3.52494 41.757C4.16592 41.9182 4.64667 41.9182 4.64667 41.9182C4.64667 41.9182 5.12739 41.9182 5.76837 41.5958C6.40934 41.4345 7.21055 40.9509 7.69128 40.306C8.01177 39.9835 8.17201 39.8223 8.33225 39.4999C8.65274 39.0162 8.81298 38.5325 8.81298 38.0488C8.81298 37.8876 8.81299 37.7264 8.97324 37.5652C8.97324 37.4039 8.97324 37.4039 8.97324 37.4039C8.97324 37.4039 8.49251 37.4039 7.85154 37.5652C7.21056 37.7264 6.40934 38.0488 5.76837 38.6937C5.44788 39.0162 5.28762 39.1774 5.12738 39.4999C4.80689 39.9835 4.80691 40.6284 4.64667 40.9509C4.64667 41.4345 4.64667 41.757 4.64667 41.757C4.64667 41.757 4.64666 41.4345 4.48641 40.9509C4.32617 40.4672 4.32616 39.9835 4.00568 39.4999C3.84543 39.1774 3.6852 38.855 3.36471 38.5325C2.72374 37.8876 2.08277 37.4039 1.44179 37.0815C0.800819 36.7591 0.320068 36.759 0.320068 36.759V36.9203C0.320068 37.0815 0.320068 37.2427 0.320068 37.5652C0.320068 38.0488 0.480317 38.6937 0.800804 39.3386C0.961048 39.9835 1.12131 40.306 1.44179 40.6284Z" fill="#F5EFDB"/>
<path d="M1.92292 46.2713C2.56389 46.9162 3.52537 47.0774 4.16634 47.0774C4.80731 47.0774 5.28804 47.0774 5.28804 47.0774C5.28804 47.0774 5.76878 46.9162 6.24951 46.5938C6.89048 46.2713 7.53144 45.7877 8.01217 45.1428C8.4929 44.4979 8.65314 43.6917 8.81339 43.2081C8.81339 43.0468 8.81339 42.8856 8.81339 42.8856C8.81339 42.7244 8.81339 42.7244 8.81339 42.5632C8.81339 42.402 8.81339 42.2407 8.81339 42.2407C8.81339 42.2407 8.33266 42.2407 7.69169 42.5632C7.3712 42.7244 7.05071 42.8856 6.73022 43.0468C6.40973 43.2081 6.08926 43.5305 5.76877 43.853C5.44829 44.1754 5.28804 44.4979 5.28804 44.9815C5.12779 45.304 5.12778 45.6264 5.12778 45.9489C5.12778 46.2713 5.12778 46.5938 5.12778 46.755C5.12778 46.9162 5.12778 47.0774 5.12778 47.0774C5.12778 47.0774 5.1278 46.9162 4.96756 46.755C4.96756 46.5938 4.80732 46.2713 4.64707 45.9489C4.48683 45.6264 4.32658 45.304 4.16634 44.9815C4.0061 44.6591 3.68561 44.3366 3.36512 44.0142C3.04463 43.6917 2.72415 43.5305 2.24342 43.3693C1.92294 43.2081 1.44219 43.0468 1.1217 43.0468C0.480725 42.8856 0 42.8856 0 42.8856C0 42.8856 0 43.0468 0 43.2081C0 43.3693 0 43.5305 0 43.5305C0 43.6918 0.160253 43.853 0.160253 44.0142C0.801227 44.8203 1.28194 45.6264 1.92292 46.2713Z" fill="#F5EFDB"/>
<path d="M5.60869 52.3977C6.24967 52.3977 6.73039 52.2365 6.73039 52.2365C6.73039 52.2365 7.21113 52.0753 7.69186 51.5916C8.17259 51.1079 8.81356 50.6243 9.13404 49.8181C9.29429 49.4957 9.45455 49.012 9.45455 48.6895C9.45455 48.3671 9.61478 48.0446 9.61478 47.7222C9.61478 47.561 9.61478 47.3998 9.61478 47.3998C9.61478 47.2385 9.61478 47.2385 9.61478 47.0773C9.61478 46.9161 9.61478 46.7549 9.61478 46.7549C9.61478 46.7549 9.13406 46.9161 8.65333 47.2385C8.33285 47.3998 8.01235 47.561 7.69186 47.8834C7.37138 48.2059 7.21113 48.5283 6.89065 48.8508C6.7304 49.1732 6.57016 49.6569 6.57016 49.9794C6.57016 50.3018 6.57016 50.7855 6.57016 51.1079C6.57016 51.7528 6.7304 52.2365 6.89065 52.2365C6.89065 52.2365 6.7304 51.7528 6.40991 51.1079C6.24967 50.7855 6.08943 50.463 5.76895 50.3018C5.44846 49.9793 5.28821 49.6569 4.80748 49.4957C4.48699 49.3344 4.00627 49.012 3.68578 49.012C3.36529 48.8508 2.88457 48.8508 2.56408 48.8508C1.92311 48.8508 1.44238 48.8508 1.44238 48.8508C1.44238 48.8508 1.44237 49.012 1.60261 49.1732C1.60261 49.3345 1.60262 49.3344 1.76286 49.4957C1.76286 49.6569 1.92309 49.8181 1.92309 49.9794C2.08334 50.3018 2.24359 50.6242 2.56408 50.9467C2.88457 51.2691 3.20504 51.5916 3.52553 51.7528C4.1665 52.2365 4.96772 52.3977 5.60869 52.3977Z" fill="#F5EFDB"/>
<path d="M5.28779 24.9893C5.44803 25.3117 5.76852 25.6342 6.08901 25.7954C6.56974 26.2791 7.05048 26.4403 7.05048 26.4403C7.05048 26.4403 7.5312 26.6015 8.17218 26.6015C8.49267 26.6015 8.81315 26.6015 9.29388 26.6015C9.61437 26.6015 10.0951 26.4403 10.4156 26.2791C10.7361 26.1178 11.0566 25.9566 11.2168 25.7954C11.6975 25.473 12.018 25.1505 12.3385 24.8281C12.4987 24.6668 12.4988 24.5056 12.659 24.5056C12.659 24.3444 12.8192 24.3443 12.8192 24.3443C12.8192 24.3443 12.3385 24.1832 11.6975 24.0219C11.377 24.0219 11.0566 23.8607 10.5758 23.8607C10.2553 23.8607 9.77461 23.8607 9.29388 24.0219C8.97339 24.1832 8.65289 24.3444 8.33241 24.5056C7.85168 24.828 7.53119 25.3117 7.21071 25.6342C6.89022 25.9566 6.89023 26.2791 6.89023 26.2791C6.89023 26.2791 7.05048 25.9566 7.05048 25.4729C7.21072 24.9893 7.21071 24.5056 7.21071 23.8607C7.21071 23.5382 7.21072 23.2158 7.05048 22.7321C6.89024 22.2484 6.72999 21.926 6.56974 21.6036C6.4095 21.2811 6.089 20.9587 5.92875 20.6362C5.44802 20.1525 5.12754 19.8301 5.12754 19.8301C5.12754 19.8301 5.12755 19.8301 4.96731 19.9913C4.96731 20.1525 4.80705 20.3137 4.80705 20.475C4.64681 20.9586 4.48657 21.6035 4.48657 22.2484C4.48657 22.5709 4.48658 23.0546 4.64683 23.377C4.96731 24.1832 5.12755 24.6668 5.28779 24.9893Z" fill="#F5EFDB"/>
<path d="M2.88432 29.1824C3.04457 29.666 3.36506 29.9885 3.68554 30.3109C4.00603 30.6334 4.32652 30.7946 4.48676 30.9558C5.12773 31.2783 5.44823 31.4395 5.44823 31.4395C5.44823 31.4395 5.92896 31.4395 6.56993 31.4395C6.89042 31.4395 7.2109 31.4395 7.69163 31.2783C8.01212 31.1171 8.49284 31.1171 8.81333 30.7946C9.13382 30.6334 9.45432 30.3109 9.7748 30.1497C10.0953 29.8273 10.2555 29.666 10.4158 29.3436C10.576 29.0211 10.7362 28.8599 10.7362 28.6987C10.8965 28.5375 10.8965 28.3762 10.8965 28.3762C10.8965 28.3762 10.4158 28.2151 9.7748 28.2151C9.13383 28.2151 8.3326 28.215 7.53138 28.5375C7.21089 28.6987 6.89042 29.0211 6.56993 29.3436C6.24944 29.666 6.08919 29.9885 5.92894 30.1497C5.60846 30.6334 5.44823 31.1171 5.44823 31.2783C5.44823 31.2783 5.60846 30.7946 5.60846 30.1497C5.60846 29.8273 5.60846 29.5048 5.60846 29.0212C5.60846 28.6987 5.44822 28.215 5.28798 27.8926C4.96749 27.0865 4.32653 26.4415 3.8458 25.9579C3.36507 25.4742 2.88432 25.313 2.88432 25.313C2.88432 25.313 2.88432 25.4742 2.72407 25.6355C2.72407 25.7967 2.56384 26.1191 2.56384 26.4416C2.56384 26.764 2.56384 27.2477 2.56384 27.5701C2.56384 28.3762 2.56384 28.6987 2.88432 29.1824Z" fill="#F5EFDB"/>
<path d="M1.12163 33.5341C1.28187 34.0178 1.44212 34.3402 1.60237 34.8238C1.92285 35.1463 2.0831 35.4688 2.40359 35.7912C2.72407 36.1136 3.04457 36.2749 3.36506 36.2749C4.00603 36.5974 4.48676 36.5973 4.48676 36.5973C4.48676 36.5973 4.96749 36.5973 5.60846 36.4361C5.92895 36.4361 6.24945 36.2749 6.56993 36.1137C6.89042 35.9524 7.37115 35.7912 7.69164 35.4688C8.01212 35.1463 8.33261 34.9851 8.49285 34.6627C8.6531 34.3402 8.81335 34.0178 8.97359 33.8565C9.13383 33.3729 9.29407 32.8892 9.29407 32.8892C9.29407 32.8892 8.81335 32.8892 8.17237 32.8892C7.5314 32.8892 6.73016 33.0504 5.92894 33.6953C5.60846 34.0178 5.28797 34.179 5.12772 34.5014C4.96748 34.8239 4.80726 35.1463 4.64701 35.4688C4.48677 36.1137 4.32651 36.5973 4.32651 36.5973C4.32651 36.5973 4.32651 36.1137 4.32651 35.4688C4.32651 35.1463 4.16628 34.8239 4.16628 34.3402C4.00603 34.0178 3.84578 33.5341 3.68554 33.2116C3.20481 32.4055 2.56382 31.9218 1.92285 31.5994C1.28187 31.2769 0.961401 31.1157 0.961401 31.1157C0.961401 31.1157 0.801147 31.5994 0.801147 32.4055C1.12164 32.7279 1.12163 33.2116 1.12163 33.5341Z" fill="#F5EFDB"/>
<path d="M16.0242 13.5434C16.0242 13.5434 16.3447 13.8659 16.9856 14.1883C17.6266 14.5108 18.2676 14.8332 19.229 14.9945C19.5495 14.9945 19.87 14.9945 20.1905 14.9945C20.8315 14.8332 21.3122 14.672 21.6327 14.5108C21.9532 14.3496 22.2737 14.1883 22.2737 14.1883C22.2737 14.1883 21.9532 13.8659 21.4725 13.3822C20.9917 12.8985 20.1905 12.5761 19.3893 12.4149C19.0688 12.4149 18.7483 12.4149 18.4278 12.4149C17.7868 12.5761 17.3061 12.7373 16.9856 13.0597C16.1844 13.3822 16.0242 13.5434 16.0242 13.5434C16.0242 13.5434 16.3447 13.221 16.5049 12.8986C16.8254 12.5761 17.1459 12.0924 17.3061 11.6087C17.4664 11.2863 17.6266 10.9638 17.6266 10.6414C17.7868 9.83526 17.6266 8.86792 17.4664 8.22302C17.3061 7.57813 16.9856 7.09448 16.9856 7.09448C16.9856 7.09448 16.6651 7.25569 16.3446 7.57813C16.0242 7.90058 15.5434 8.38425 15.2229 9.02914C15.0627 9.35159 14.9025 9.67406 14.9025 10.1577C14.7422 11.1251 14.9025 11.9312 15.2229 12.5761C15.7037 13.221 16.0242 13.5434 16.0242 13.5434Z" fill="#F5EFDB"/>
<path d="M12.3386 17.4114C12.3386 17.4114 12.8193 17.7338 13.3 17.895C13.941 18.2175 14.7422 18.3787 15.5434 18.3787C15.7037 18.3787 16.0242 18.3787 16.1844 18.2175C16.3447 18.2175 16.5049 18.0562 16.6652 18.0562C16.9856 17.895 17.3061 17.7338 17.6266 17.5726C17.9471 17.4114 18.1073 17.2501 18.2676 17.2501C18.4278 17.0889 18.4278 17.0889 18.4278 17.0889C18.4278 17.0889 18.1073 16.7665 17.4664 16.444C17.1459 16.2828 16.8254 16.1216 16.5049 15.9604C16.3447 15.9604 16.1844 15.7991 15.8639 15.7991C15.7037 15.7991 15.3832 15.7991 15.223 15.7991C14.7422 15.7991 14.4217 15.9604 14.1013 16.1216C13.7808 16.2828 13.4603 16.444 13.1398 16.6052C12.6591 16.9277 12.3386 17.2501 12.3386 17.4114C12.3386 17.4114 12.6591 16.9277 12.9796 16.444C13.1398 16.1216 13.3 15.7991 13.4603 15.4767C13.6205 15.1542 13.6205 14.6706 13.6205 14.3481C13.6205 14.1869 13.6205 13.8645 13.6205 13.7032C13.6205 13.542 13.6205 13.2195 13.4603 13.0583C13.3 12.7358 13.3 12.2522 13.1398 11.9298C12.8193 11.2849 12.4988 10.9624 12.4988 10.9624C12.4988 10.9624 12.3386 11.1236 12.1783 11.2849C12.0181 11.4461 11.8578 11.7685 11.6976 11.9298C11.5374 12.2522 11.3771 12.5746 11.2169 13.0583C11.2169 13.2195 11.0566 13.542 11.0566 13.7032C11.0566 13.8645 11.0566 14.1869 11.0566 14.3481C11.0566 15.3155 11.3771 16.1216 11.6976 16.6052C12.0181 17.0889 12.3386 17.4114 12.3386 17.4114Z" fill="#F5EFDB"/>
<path d="M8.49301 20.96C8.97374 21.4437 9.29423 21.7661 9.29423 21.7661C9.29423 21.7661 9.77495 21.9273 10.4159 22.0885C11.0569 22.2498 11.8581 22.411 12.6594 22.2498C13.4606 22.0886 14.1015 21.6049 14.5823 21.2824C14.7425 21.1212 15.063 20.96 15.063 20.7988C15.2233 20.6375 15.2232 20.6375 15.2232 20.6375C15.2232 20.6375 14.7425 20.3151 14.2618 20.1539C13.6208 19.8314 12.8196 19.6702 12.0184 19.8314C11.5376 19.8314 11.2172 19.9926 10.8967 20.3151C10.5762 20.4763 10.2557 20.7988 10.0954 20.96C9.9352 21.1212 9.61471 21.4437 9.61471 21.6049C9.45447 21.7661 9.45448 21.9273 9.45448 21.9273C9.45448 21.9273 9.61471 21.7661 9.61471 21.6049C9.77495 21.4437 9.77495 21.1212 9.93519 20.7988C10.0954 20.4763 10.0955 20.1539 10.2557 19.8314C10.2557 19.509 10.4159 19.0253 10.2557 18.5416C10.0955 17.5743 9.77497 16.9293 9.45448 16.2844C9.13399 15.6395 8.81349 15.3171 8.81349 15.3171C8.81349 15.3171 8.65326 15.4783 8.65326 15.6396C8.49302 15.8008 8.33277 16.1232 8.17253 16.4457C7.85204 17.0906 7.53155 18.0579 7.69179 18.8641C7.69179 19.6702 8.01228 20.4763 8.49301 20.96Z" fill="#F5EFDB"/>
<path d="M30.126 6.77135C30.4465 7.25502 31.0875 8.06114 31.7284 8.38359C32.0489 8.54481 32.3694 8.70606 32.6899 8.86729C33.0104 9.02851 33.1706 9.02847 33.4911 9.02847C33.8116 9.02847 33.9719 9.02847 34.1321 9.02847C34.4526 9.02847 34.7731 9.02847 34.7731 9.02847C34.7731 9.02847 34.6128 8.54483 34.4526 7.89993C34.1321 7.25504 33.6514 6.61014 33.0104 6.12647C32.6899 5.96524 32.3694 5.804 32.0489 5.804C30.9272 5.48155 29.8055 5.804 29.6453 5.804C29.8055 5.804 30.767 5.48158 31.7284 4.67546C32.0489 4.51424 32.2092 4.19179 32.5297 3.86935C33.0104 3.22445 33.3309 2.25712 33.4911 1.61223C33.6514 0.967333 33.6514 0.483643 33.6514 0.483643C33.6514 0.483643 33.3309 0.483652 32.8501 0.644876C32.6899 0.644876 32.3694 0.80607 32.0489 0.967294C31.7284 1.12852 31.4079 1.28977 31.2477 1.45099C30.9272 1.61222 30.6067 1.93466 30.4465 2.25711C29.9658 3.06323 29.8055 3.86934 29.8055 4.51423C29.8055 5.15912 29.8055 5.64282 29.8055 5.64282C29.8055 5.64282 29.6453 6.28768 30.126 6.77135Z" fill="#F5EFDB"/>
<path d="M24.6773 7.73913C24.6773 7.73913 24.9978 8.22282 25.3183 8.70649C25.799 9.19016 26.44 9.83504 27.2412 9.99626C27.5617 10.1575 28.0424 10.3187 28.3629 10.3187C28.6834 10.3187 29.0039 10.3187 29.3244 10.3187C29.9654 10.3187 30.2859 10.1575 30.2859 10.1575C30.2859 10.1575 30.1256 9.67381 29.8051 9.19014C29.4846 8.70647 28.8437 8.06157 28.0424 7.5779C27.2412 7.25545 26.44 7.25544 25.799 7.41667C25.1581 7.41667 24.6773 7.73913 24.6773 7.73913C24.6773 7.73913 25.158 7.57792 25.6388 7.09425C26.1195 6.7718 26.7605 6.12689 27.081 5.32077C27.5617 4.51465 27.5617 3.70854 27.722 3.06365C27.722 2.41875 27.5617 1.93506 27.5617 1.93506C27.5617 1.93506 27.081 2.09631 26.44 2.41876C26.1195 2.57998 25.799 2.90243 25.4785 3.22488C25.1581 3.54733 24.8376 3.86975 24.6773 4.35342C24.1966 5.15954 24.1966 6.12688 24.3568 6.77178C24.5171 7.25545 24.6773 7.73913 24.6773 7.73913Z" fill="#F5EFDB"/>
<path d="M20.0301 10.3183C20.0301 10.3183 20.3506 10.6407 20.8313 11.1244C21.3121 11.6081 22.1133 12.0917 22.9145 12.253C23.3952 12.4142 23.7157 12.4142 24.0362 12.4142C24.3567 12.4142 24.6772 12.253 24.9977 12.253C25.6387 12.0917 25.9591 11.9305 25.9591 11.9305C25.9591 11.9305 25.6387 11.4468 25.3182 10.9632C24.8374 10.4795 24.1965 9.99584 23.3952 9.67339C23.0748 9.51217 22.594 9.51216 22.2735 9.51216C21.953 9.51216 21.4723 9.67339 21.3121 9.67339C20.5108 9.99584 20.1903 10.3183 20.0301 10.3183C20.0301 10.3183 20.5108 9.99583 20.9916 9.51216C21.1518 9.35093 21.4723 9.02848 21.6325 8.70603C21.7928 8.38358 22.1133 8.06111 22.1133 7.57744C22.4338 6.77131 22.4338 5.80396 22.2735 5.15906C22.1133 4.51416 21.953 4.03052 21.953 4.03052C21.953 4.03052 21.4723 4.19173 20.8313 4.67541C20.5108 4.83663 20.1903 5.15908 20.0301 5.48153C19.7096 5.80398 19.5494 6.28763 19.3891 6.61008C19.0686 7.4162 19.2289 8.38355 19.3891 9.02845C19.8699 9.83458 20.0301 10.3183 20.0301 10.3183Z" fill="#F5EFDB"/>
<path d="M45.1885 5.96523C45.3488 6.61012 45.509 7.41622 45.9898 8.22233C46.15 8.54477 46.4705 8.706 46.6307 9.02844C46.791 9.18966 47.1115 9.35091 47.2717 9.51214C47.432 9.67336 47.7525 9.83455 47.9127 9.83455C48.2332 9.99577 48.5537 10.157 48.5537 10.157C48.5537 10.157 48.7139 9.67333 48.7139 9.02844C48.7139 8.38355 48.5537 7.57745 48.0729 6.77134C47.9127 6.44889 47.5922 6.28767 47.432 5.96523C47.2717 5.804 46.9512 5.6428 46.791 5.48158C46.6307 5.32036 46.3103 5.32034 46.15 5.15912C45.6693 4.99789 45.509 4.99788 45.3488 4.99788C45.3488 4.99788 45.6693 4.99788 46.15 4.99788C46.3103 4.99788 46.6307 4.99788 46.9512 4.99788C47.2717 4.99788 47.432 4.99792 47.7524 4.8367C48.0729 4.67548 48.3934 4.67546 48.7139 4.51424C49.5151 4.03057 50.1561 3.5469 50.4766 2.90201C50.7971 2.41835 51.1176 1.93467 51.1176 1.93467C51.1176 1.93467 50.7971 1.77344 50.3164 1.77344C49.9959 1.77344 49.8356 1.77344 49.5151 1.77344C49.1946 1.77344 48.8742 1.77345 48.5537 1.93467C48.2332 1.93467 47.9127 2.09591 47.432 2.25713C46.6307 2.7408 46.15 3.3857 45.8295 4.03059C45.509 4.67548 45.3488 5.15912 45.3488 5.15912C45.3488 5.15912 45.0283 5.32034 45.1885 5.96523Z" fill="#F5EFDB"/>
<path d="M41.1826 7.57748C41.5031 7.89993 41.8235 8.06115 42.144 8.3836C42.4645 8.54482 42.785 8.70608 43.1055 8.8673C43.5862 9.02853 44.067 9.18972 44.067 9.18972C44.067 9.18972 44.067 8.70608 44.067 8.06118C43.9067 7.41629 43.7465 6.61014 43.1055 5.96524C42.785 5.6428 42.4645 5.48157 42.144 5.15912C41.8235 4.9979 41.5031 4.8367 41.1826 4.67547C40.5416 4.51425 40.0609 4.51424 40.0609 4.51424C40.0609 4.51424 40.5416 4.51423 41.1826 4.353C41.5031 4.353 41.8235 4.19181 42.144 4.03059C42.4645 3.86936 42.9452 3.7081 43.2657 3.38565C43.9067 2.90198 44.3875 2.0959 44.7079 1.61223C45.0284 0.967334 45.1887 0.483643 45.1887 0.483643C45.1887 0.483643 44.7079 0.483643 43.9067 0.483643C43.1055 0.483643 42.3043 0.80609 41.5031 1.28976C40.7019 1.93466 40.3814 2.57957 40.2211 3.22447C40.0609 3.86936 39.9006 4.353 39.9006 4.353C39.9006 4.353 39.9006 4.8367 40.0609 5.48159C40.2211 6.12649 40.5416 6.93259 41.1826 7.57748Z" fill="#F5EFDB"/>
<path d="M37.8173 5.48164C37.1763 4.99796 36.3751 4.67551 35.7341 4.67551C35.0932 4.67551 34.6124 4.67551 34.6124 4.67551C34.6124 4.67551 35.0932 4.67549 35.7341 4.35304C36.3751 4.19182 37.0161 3.8694 37.657 3.2245C38.298 2.5796 38.6185 1.77344 38.939 1.12855C39.0992 0.483645 39.2595 0 39.2595 0C39.2595 0 38.7787 -3.9364e-05 37.9775 0.161186C37.657 0.161186 37.1763 0.32244 36.8558 0.64489C36.5353 0.806115 36.0546 1.12856 35.7341 1.45101C35.0932 2.09591 34.7727 2.90202 34.7727 3.54692C34.6124 4.19182 34.6124 4.67551 34.6124 4.67551C34.6124 4.67551 34.7727 5.15916 34.9329 5.80406C35.2534 6.44896 35.5739 7.09388 36.2149 7.73878C36.5353 8.06123 36.8558 8.22244 37.1763 8.38367C37.4968 8.54489 37.8173 8.54491 38.1378 8.70614C38.7787 8.86736 39.0992 8.86737 39.0992 8.86737C39.0992 8.86737 39.0992 8.38368 38.939 7.73878C38.939 6.93265 38.4583 6.12654 37.8173 5.48164Z" fill="#F5EFDB"/>
<path d="M59.6105 10.6406C59.6105 10.6406 59.4503 11.1242 59.1298 11.7691C58.9696 12.414 58.8093 13.2201 58.8093 14.0263C58.8093 14.3487 58.9696 14.6712 59.1298 14.9936C59.2901 15.4773 59.6106 15.9609 59.931 16.2834C60.0913 16.4446 60.0913 16.6059 60.2515 16.6059C60.4118 16.7671 60.4118 16.7671 60.4118 16.7671C60.4118 16.7671 60.7323 16.4446 61.0527 15.7997C61.3732 15.1548 61.5335 14.3487 61.5335 13.5426C61.5335 13.2202 61.3732 12.8977 61.213 12.5753C60.572 11.4467 59.6105 10.6406 59.6105 10.6406C59.7708 10.6406 60.572 11.2855 61.854 11.6079C62.1744 11.6079 62.4949 11.7691 62.9756 11.7691C63.7769 11.7691 64.7383 11.4467 65.219 11.1243C65.86 10.8018 66.1805 10.4794 66.1805 10.4794C66.1805 10.4794 66.1805 10.4794 66.0203 10.3181C65.86 10.1569 65.6998 10.1569 65.5395 9.99567C65.0588 9.67322 64.5781 9.35078 63.9371 9.18955C63.6166 9.02833 63.1359 9.02832 62.8154 9.02832C61.8539 9.02832 61.0527 9.51199 60.572 9.83444C59.931 10.3181 59.6105 10.6406 59.6105 10.6406Z" fill="#F5EFDB"/>
<path d="M55.1238 7.90005C55.1238 7.90005 54.9635 8.3837 54.8033 9.0286C54.643 9.6735 54.643 10.4797 54.9635 11.2858C55.1237 11.7695 55.284 12.0919 55.4442 12.4143C55.6045 12.5756 55.6045 12.7368 55.7647 12.898C55.925 13.0593 55.925 13.2205 56.0852 13.2205C56.4057 13.7041 56.8864 13.8653 56.8864 13.8653C56.8864 13.8653 57.0467 13.3817 57.3672 12.7368C57.5274 12.0919 57.6877 11.2858 57.5274 10.4797C57.3672 9.99599 57.2069 9.67352 57.0467 9.35107C56.8864 9.02862 56.5659 8.70617 56.4057 8.54494C55.6045 8.22249 55.1238 8.06128 55.1238 7.90005C55.1238 7.90005 55.6045 8.22248 56.2455 8.38371C56.566 8.38371 56.8864 8.54494 57.3672 8.54494C57.6877 8.54494 58.1684 8.54494 58.6491 8.54494C59.4503 8.38372 60.2516 7.90003 60.7323 7.57758C61.213 7.09391 61.5335 6.77146 61.5335 6.77146C61.5335 6.77146 61.0528 6.44903 60.4118 6.2878C60.2516 6.2878 60.0913 6.12657 59.9311 6.12657C59.7708 6.12657 59.4503 5.96533 59.2901 5.96533C58.8094 5.96533 58.4889 5.96533 58.0081 5.96533C57.0467 6.12656 56.4057 6.61025 55.925 7.09393C55.284 7.5776 55.1238 7.90005 55.1238 7.90005Z" fill="#F5EFDB"/>
<path d="M50.1563 5.96538C50.1563 5.96538 49.9961 6.44908 49.9961 7.09397C49.9961 7.73887 49.9961 8.54497 50.4768 9.35109C50.6371 9.67354 50.7973 9.996 51.1178 10.3184C51.2781 10.6409 51.5985 10.8021 51.7588 10.9633C52.2395 11.2858 52.56 11.447 52.56 11.447C52.56 11.447 52.7202 10.9633 52.8805 10.3184C53.0407 9.67355 53.0407 8.86744 52.7202 8.06132C52.56 7.73888 52.3997 7.41642 52.0793 7.09397C51.7588 6.77152 51.5985 6.61031 51.278 6.44909C50.7973 6.12664 50.3166 5.96538 50.1563 5.96538C50.1563 5.96538 50.6371 6.12662 51.278 6.12662C51.5985 6.12662 51.919 6.12662 52.3997 6.12662C52.7202 6.12662 53.201 5.96538 53.5215 5.96538C54.3227 5.64294 54.9636 5.15929 55.4444 4.67561C55.9251 4.19194 56.0853 3.70826 56.0853 3.70826C56.0853 3.70826 55.6046 3.54702 54.9636 3.38579C54.6431 3.22457 54.1624 3.22461 53.8419 3.22461C53.3612 3.22461 53.0407 3.22457 52.56 3.38579C51.7588 3.70824 51.1178 4.35318 50.6371 4.83685C50.3166 5.48174 50.1563 5.96538 50.1563 5.96538Z" fill="#F5EFDB"/>
<path d="M71.1484 21.9268C70.5074 22.088 70.0266 22.2492 70.0266 22.2492C70.0266 22.2492 69.7061 22.5717 69.2254 23.0554C69.0652 23.2166 68.7447 23.539 68.5844 23.8615C68.4242 24.1839 68.1037 24.5064 68.1037 24.9901C67.9435 25.3125 67.9435 25.6349 67.9435 25.9574C67.9435 26.6023 67.9435 27.086 68.1037 27.4084C68.1037 27.5697 68.264 27.7309 68.264 27.8921C68.264 28.0533 68.264 28.0533 68.264 28.0533C68.264 28.0533 68.7447 27.8921 69.2254 27.4084C69.5459 27.2472 69.7061 26.9248 70.0266 26.6023C70.1869 26.2799 70.5074 25.9574 70.6676 25.4737C70.8279 25.1513 70.8279 24.8288 70.8279 24.5064C70.8279 23.8615 70.6676 23.3778 70.5074 22.8941C70.3471 22.4105 70.1869 22.2492 70.1869 22.088C70.1869 22.088 70.3471 22.4104 70.6676 22.7329C70.9881 23.0553 71.3086 23.539 71.7893 23.8615C72.1098 24.0227 72.4303 24.3451 72.7508 24.3451C73.2315 24.5064 73.552 24.6676 74.0327 24.6676C74.5135 24.6676 74.834 24.6676 75.1545 24.6676C75.7954 24.6676 76.2762 24.5064 76.2762 24.5064C76.2762 24.5064 76.2762 24.5064 76.1159 24.3451C76.1159 24.1839 75.9557 24.0227 75.7954 23.8615C75.4749 23.3778 75.1545 22.8941 74.6737 22.4105C74.3532 22.2492 74.0327 21.9268 73.7123 21.7656C73.2315 21.6044 72.911 21.4431 72.4303 21.4431C71.9496 21.7656 71.4688 21.7655 71.1484 21.9268Z" fill="#F5EFDB"/>
<path d="M68.2641 17.4126C67.6231 17.5738 67.3026 17.8962 67.3026 17.8962C67.3026 17.8962 66.9821 18.2187 66.5014 18.7023C66.1809 19.186 65.7002 19.9922 65.5399 20.7983C65.5399 21.282 65.5399 21.6044 65.5399 21.9268C65.5399 22.2493 65.7001 22.5718 65.7001 22.8942C65.8604 23.3779 66.0206 23.8616 66.0206 23.8616C66.0206 23.8616 66.3411 23.5391 66.8218 23.0554C67.3026 22.5718 67.7833 21.9269 67.9436 20.9595C68.1038 20.1534 67.9436 19.3472 67.6231 18.7023C67.4628 18.3799 67.3026 18.2187 67.3026 18.0575C67.1423 17.8962 67.1424 17.735 67.1424 17.735C67.3026 17.8963 68.264 19.186 70.0267 19.6697C70.8279 19.8309 71.7894 19.8309 72.4304 19.6697C73.0714 19.5085 73.5521 19.3473 73.5521 19.3473C73.5521 19.3473 73.2316 18.8636 72.7509 18.3799C72.4304 18.0575 72.2702 17.8963 71.7894 17.5738C71.4689 17.4126 70.9882 17.0901 70.5075 17.0901C69.7062 16.9289 68.7448 17.0901 68.2641 17.4126Z" fill="#F5EFDB"/>
<path d="M64.578 13.3821C63.937 13.7045 63.6165 14.027 63.6165 14.027C63.6165 14.027 63.296 14.3494 62.9756 14.9943C62.8153 15.3168 62.6551 15.6392 62.4948 15.9617C62.4948 16.1229 62.3346 16.2841 62.3346 16.6066C62.3346 16.7678 62.3346 17.0902 62.3346 17.2514C62.3346 17.7351 62.3346 18.0576 62.4948 18.38C62.6551 18.7025 62.6551 19.0249 62.8153 19.3474C62.9755 19.6698 63.1358 19.831 63.1358 19.9923C63.2961 20.1535 63.296 20.1535 63.296 20.1535C63.296 20.1535 63.6165 19.8311 64.0973 19.3474C64.4177 18.8637 64.8985 18.0576 64.8985 17.2514C64.8985 17.0902 64.8985 16.7678 64.8985 16.6066C64.8985 16.4453 64.7382 16.2841 64.7382 16.1229C64.578 15.8005 64.4178 15.478 64.2575 15.1556C63.937 14.6719 63.6165 14.3494 63.4563 14.1882C63.4563 14.1882 63.937 14.5106 64.4177 14.8331C64.7382 14.9943 65.0587 15.1556 65.3792 15.3168C65.5395 15.3168 65.6997 15.478 66.0202 15.478C66.1804 15.478 66.3407 15.6392 66.6612 15.6392C67.4624 15.8004 68.4238 15.478 69.0648 15.3168C69.7058 15.1556 70.0263 14.8331 70.0263 14.8331C70.0263 14.8331 69.866 14.6719 69.866 14.5107C69.7058 14.3495 69.5455 14.1882 69.225 13.8657C68.9046 13.7045 68.5841 13.3821 68.2636 13.2209C67.9431 13.0596 67.4624 12.8984 66.9816 12.8984C66.8214 12.8984 66.5009 12.8984 66.3407 12.8984C66.1804 12.8984 65.8599 12.8984 65.6997 13.0596C65.219 13.0596 64.8985 13.2209 64.578 13.3821Z" fill="#F5EFDB"/>
<path d="M77.077 32.8903C76.436 32.2455 75.4745 32.0842 74.8336 32.0842C74.1926 32.0842 73.7119 32.0842 73.7119 32.0842C73.7119 32.0842 73.2312 32.2454 72.7504 32.5679C72.1094 32.8903 71.4685 33.374 70.9877 34.0189C70.507 34.6638 70.3468 35.4699 70.1865 35.9536C70.1865 36.1148 70.1865 36.276 70.1865 36.276C70.1865 36.4373 70.1865 36.4372 70.1865 36.5985C70.1865 36.7597 70.1865 36.9209 70.1865 36.9209C70.1865 36.9209 70.6672 36.9209 71.3082 36.5985C71.6287 36.4372 71.9492 36.276 72.2697 36.1148C72.5902 35.9536 72.9106 35.6311 73.2311 35.3087C73.5516 34.9862 73.7119 34.6638 73.7119 34.1801C73.8721 33.8577 73.8721 33.5352 73.8721 33.2128C73.8721 32.8903 73.8721 32.5679 73.8721 32.4066C73.8721 32.2454 73.8721 32.0842 73.8721 32.0842C73.8721 32.0842 73.8721 32.2454 74.0323 32.4066C74.0323 32.5679 74.1926 32.8903 74.3529 33.2128C74.5131 33.5352 74.6733 33.8577 74.8336 34.1801C74.9938 34.5026 75.3143 34.825 75.6348 35.1475C75.9553 35.4699 76.2758 35.6311 76.7565 35.7923C77.077 35.9536 77.5577 36.1148 77.8782 36.1148C78.5192 36.276 78.9999 36.276 78.9999 36.276C78.9999 36.276 78.9999 36.1148 78.9999 35.9536C78.9999 35.7924 78.9999 35.6311 78.9999 35.6311C78.9999 35.4699 78.8396 35.3087 78.8396 35.1475C78.1987 34.3413 77.8782 33.5352 77.077 32.8903Z" fill="#F5EFDB"/>
<path d="M73.3915 26.762C72.7505 26.762 72.2698 26.9232 72.2698 26.9232C72.2698 26.9232 71.789 27.0844 71.3083 27.5681C70.8276 27.8905 70.1866 28.5354 69.8661 29.3416C69.7059 29.664 69.5456 30.1477 69.5456 30.4701C69.5456 30.7926 69.3854 31.1151 69.3854 31.4375C69.3854 31.5987 69.3854 31.7599 69.3854 31.7599C69.3854 31.9211 69.3854 31.9212 69.3854 32.0824C69.3854 32.2436 69.3854 32.4048 69.3854 32.4048C69.3854 32.4048 69.8661 32.2436 70.3468 31.9212C70.6673 31.7599 70.9878 31.5987 71.3083 31.2763C71.6288 30.9538 71.789 30.6314 72.1095 30.3089C72.2698 29.9865 72.43 29.5028 72.43 29.1803C72.43 28.8579 72.43 28.3742 72.43 28.0518C72.43 27.4069 72.2698 26.9232 72.1095 26.9232C72.1095 26.9232 72.2698 27.4069 72.5903 28.0518C72.7505 28.3742 72.9107 28.6967 73.2312 28.8579C73.5517 29.1804 73.712 29.5028 74.1927 29.664C74.5132 29.8253 74.9939 30.1477 75.3144 30.1477C75.6349 30.3089 76.1156 30.3089 76.4361 30.3089C77.0771 30.3089 77.5578 30.3089 77.5578 30.3089C77.5578 30.3089 77.5578 30.1477 77.3976 29.9864C77.3976 29.8252 77.3976 29.8253 77.2373 29.664C77.2373 29.5028 77.0771 29.3416 77.0771 29.1803C76.9168 28.8579 76.7566 28.5355 76.4361 28.213C76.1156 27.8906 75.7951 27.5681 75.4746 27.4069C74.9939 26.9232 74.1927 26.762 73.3915 26.762Z" fill="#F5EFDB"/>
</svg>
