<svg width="20" height="12" viewBox="0 0 20 12" fill="none" xmlns="http://www.w3.org/2000/svg">
<path d="M7.33594 0.212105C7.23438 0.239449 7.12109 0.286324 7.08203 0.313667C6.91797 0.438667 6.74609 0.614449 6.69531 0.708199C6.62891 0.837105 6.66406 0.872261 6.91406 0.938667C7.30078 1.04414 7.55469 1.24726 7.69531 1.57929C7.83203 1.90351 7.90234 2.73164 7.875 3.7121C7.84375 4.87617 7.74219 5.35664 7.49219 5.56757C7.15625 5.85273 6.70312 5.50507 5.94922 4.37617C5.39062 3.53632 4.89453 2.61445 4.37109 1.42695C4.13281 0.88398 3.94922 0.661324 3.67969 0.587105C3.55859 0.555855 3.03906 0.548042 1.92188 0.555855C0.164062 0.567574 0.140625 0.57148 0.0390625 0.817574C-0.0351562 1.00117 0.015625 1.16914 0.378906 1.95429C1.44922 4.26679 2.44922 6.05195 3.49219 7.5207C5.31641 10.0949 7.06641 11.2316 9.53125 11.4465C10.3906 11.5207 11.0859 11.4816 11.3555 11.341C11.5742 11.2277 11.6406 11.0598 11.7031 10.4621C11.7656 9.82929 11.8125 9.62226 11.9609 9.30586C12.1602 8.88007 12.4648 8.74336 12.8359 8.90351C12.9844 8.96992 13.1562 9.12226 13.5938 9.5832C14.8711 10.9191 15.0352 11.0715 15.3945 11.2434C15.6055 11.3449 15.8242 11.4152 16.0039 11.4426C16.3594 11.4973 19.3438 11.5012 19.5273 11.4465C19.957 11.3254 20.0977 10.8176 19.8477 10.3059C19.5938 9.79414 19.1328 9.24726 18.0234 8.1457C17.4414 7.56367 16.9141 7.01289 16.8516 6.92304C16.7031 6.69257 16.6992 6.43086 16.8398 6.13398C16.8945 6.01679 17.3867 5.32148 17.9297 4.59101C19.043 3.09492 19.4062 2.55976 19.6602 2.05195C20.0273 1.31367 20.082 0.942574 19.8516 0.739449C19.6562 0.563667 19.4688 0.548042 17.5469 0.548042C15.8711 0.548042 15.75 0.555855 15.5977 0.626167C15.3945 0.716011 15.3398 0.801949 15.0352 1.5246C14.4023 3.00507 13.7109 4.19648 12.9727 5.05976C12.6289 5.46601 12.4219 5.62617 12.2422 5.62617C12.0312 5.62617 11.8281 5.41523 11.707 5.06367C11.6797 4.98554 11.6562 4.18085 11.6445 2.85273C11.6211 0.829292 11.6172 0.75898 11.5391 0.583199C11.4492 0.391792 11.3164 0.274605 11.0977 0.204292C10.9023 0.137886 7.58594 0.145699 7.33594 0.212105Z" fill="#F9F9F9"/>
</svg>
