<svg width="20" height="21" viewBox="0 0 20 21" fill="none" xmlns="http://www.w3.org/2000/svg">
<path d="M9.27746 0.8274C7.76581 0.972095 6.6262 1.3006 5.38868 1.93805C3.50108 2.91573 1.97768 4.46828 1.03387 6.37672C0.669669 7.10803 0.501273 7.55776 0.309379 8.27733C0.0744077 9.18462 0.00391619 9.73604 0 10.7372C0 11.2378 0.019581 11.7774 0.0469943 11.9886C0.262385 13.592 0.763658 14.9725 1.60564 16.263L1.88761 16.6971L1.26493 18.5313C0.920305 19.5441 0.646172 20.3732 0.654004 20.381C0.661837 20.3889 1.51557 20.1229 2.55727 19.7905C3.59898 19.4581 4.46446 19.1844 4.48404 19.1844C4.49971 19.1844 4.66027 19.2743 4.84042 19.3877C5.02056 19.4972 5.39651 19.7006 5.67456 19.8335C8.20834 21.0419 11.1024 21.1475 13.6949 20.119C16.6321 18.9575 18.8878 16.4116 19.6945 13.3535C19.9413 12.4149 20 11.9026 20 10.8154C20 9.72821 19.9413 9.21591 19.6945 8.27733C18.7468 4.6912 15.8684 1.90285 12.2342 1.05422C11.6233 0.913435 10.9888 0.839132 10.2173 0.8274C9.78657 0.819578 9.36362 0.819578 9.27746 0.8274ZM6.88858 5.46552C6.95516 5.50072 7.04523 5.59457 7.09223 5.68061C7.2058 5.88788 8.16135 8.17566 8.18876 8.31644C8.22401 8.49242 8.04778 8.79355 7.66007 9.23155C7.25279 9.68911 7.16663 9.8338 7.20188 9.99805C7.26845 10.2953 8.1731 11.4959 8.73311 12.0238C9.59859 12.8412 10.9066 13.6194 11.4901 13.6624C11.7917 13.682 11.8974 13.5998 12.3595 12.9898C12.5671 12.7121 12.7864 12.4344 12.8529 12.3719C13.0018 12.2193 13.225 12.1881 13.4795 12.2819C13.8007 12.4032 15.7705 13.3613 15.9115 13.4669L16.0446 13.5646L16.0211 13.9792C15.9663 15.0429 15.5904 15.5943 14.6035 16.0753C13.6636 16.5329 12.9274 16.5211 11.4901 16.0245C9.55551 15.3558 8.53339 14.7183 7.14314 13.3222C6.44605 12.6261 5.95261 12.0355 5.38868 11.226C4.45663 9.89637 4.10025 8.86785 4.20599 7.82369C4.29215 6.98679 4.58586 6.3689 5.17721 5.77838C5.46309 5.4929 5.83513 5.37557 6.39906 5.39513C6.63795 5.40295 6.81418 5.42641 6.88858 5.46552Z" fill="#F9F9F9"/>
</svg>
